<svg width="32" height="32" viewBox="0 0 32 32" fill="none" xmlns="http://www.w3.org/2000/svg">
	<path fill-rule="evenodd" clip-rule="evenodd" d="M13.55 5.39302C12.2603 6.15828 10.1655 7.39895 8.895 8.15003L6.585 9.51562L6.55 12.2433L6.515 14.9709L4.44664 16.1985C3.30907 16.8737 2.29323 17.4836 2.18914 17.5538L2 17.6814V20.5548V23.4281L2.1925 23.5646C2.55349 23.8207 6.80606 26.3178 6.88117 26.3178C6.98799 26.3178 11.4566 23.6617 11.625 23.4981C11.7582 23.3687 11.7667 23.2437 11.8 20.9312L11.835 18.5003L13.725 19.6233L15.615 20.7462L15.6333 23.4137C15.6501 25.8416 15.6626 26.0912 15.7733 26.1933C16.0028 26.405 20.4449 29.0085 20.5621 29C20.7305 28.9878 25.1811 26.3361 25.3275 26.1607C25.4393 26.0267 25.4501 25.7835 25.4509 23.3759L25.4518 20.738L27.6248 19.4509C28.82 18.7429 29.8433 18.117 29.8989 18.0598C29.9836 17.9726 30 17.4962 30 15.122V12.288L29.8075 12.1512C29.7016 12.0759 28.6542 11.4469 27.48 10.7534C26.3057 10.0599 23.2598 8.2563 20.7112 6.7455C18.1627 5.23462 16.0364 3.99921 15.9862 4C15.936 4.00086 14.8398 4.62768 13.55 5.39302ZM18.0363 5.94358C18.9761 6.50315 19.7677 6.98359 19.7955 7.01124C19.8376 7.05314 16.3712 9.16758 16.0571 9.29156C15.9582 9.33058 12.2271 7.16359 12.199 7.05084C12.1913 7.01995 13.0355 6.4876 14.075 5.86777C15.8595 4.80379 15.9752 4.74611 16.1463 4.83359C16.246 4.88457 17.0965 5.38409 18.0363 5.94358ZM13.3777 8.58836C14.43 9.21207 15.2693 9.74471 15.2429 9.77214C15.2166 9.79958 14.3493 10.3249 13.3156 10.9397L11.4363 12.0574L9.52031 10.9258C8.46653 10.3035 7.60336 9.77682 7.60217 9.75551C7.60021 9.72038 11.3785 7.45439 11.439 7.45439C11.4531 7.45439 12.3255 7.96471 13.3777 8.58836ZM22.486 8.58663C23.5387 9.20941 24.3986 9.73586 24.3969 9.75659C24.3951 9.77733 23.5294 10.3046 22.473 10.9281L20.5523 12.062L18.7136 10.9729C17.7024 10.3739 16.8366 9.84731 16.7896 9.80267C16.7246 9.7409 17.1605 9.45024 18.6096 8.589C19.6576 7.96615 20.5278 7.45604 20.5435 7.45547C20.5592 7.45489 21.4333 7.96392 22.486 8.58663ZM17.9692 11.3158C19.0089 11.9347 19.8338 12.465 19.8023 12.494C19.684 12.6032 16.0643 14.7262 15.9966 14.7262C15.8516 14.7262 12.1426 12.4731 12.1977 12.4186C12.3191 12.2982 15.8999 10.1947 15.987 10.1925C16.0376 10.1913 16.9296 10.6967 17.9692 11.3158ZM27.5347 11.5583C28.3105 12.0137 28.9463 12.4047 28.9476 12.4272C28.9496 12.4619 25.6853 14.4288 25.5105 14.4982C25.4772 14.5114 25.45 13.5793 25.45 12.4268V10.3314L25.7871 10.5309C25.9725 10.6405 26.7589 11.1029 27.5347 11.5583ZM9.21448 11.5289L11.1 12.6515V14.953C11.1 16.2189 11.0764 17.2407 11.0475 17.2236C11.0186 17.2066 10.1367 16.6834 9.0875 16.0609L7.18 14.9291V12.6677C7.18 11.1174 7.20345 10.4063 7.25448 10.4063C7.29543 10.4063 8.17743 10.9114 9.21448 11.5289ZM24.75 12.6968V14.9873L22.8775 16.0928C21.8477 16.7008 20.9809 17.2112 20.9515 17.227C20.9221 17.2429 20.9064 16.2133 20.9165 14.9391L20.935 12.6223L22.79 11.5165C23.8102 10.9084 24.6686 10.4098 24.6975 10.4085C24.7264 10.4073 24.75 11.437 24.75 12.6968ZM14.0613 14.4022L15.6478 15.3382L15.6489 17.6642L15.65 19.9902L15.3525 19.8066C15.1889 19.7057 14.3237 19.1936 13.4299 18.6686L11.8048 17.7141L11.8024 15.3907L11.8 13.0673L12.1373 13.2668C12.3229 13.3764 13.1887 13.8874 14.0613 14.4022ZM20.1485 17.684C20.072 17.7571 16.4361 19.91 16.3891 19.91C16.3676 19.91 16.3505 18.8813 16.3511 17.6241L16.3522 15.3382L18.2586 14.2082L20.165 13.0783L20.1835 15.3556C20.1937 16.6081 20.1779 17.6558 20.1485 17.684ZM29.2485 17.6862C29.1807 17.7539 25.6882 19.8314 25.5515 19.8853C25.4641 19.9199 25.45 19.6058 25.45 17.6288V15.3323L27.3575 14.1995L29.265 13.0668L29.2835 15.3498C29.2937 16.6055 29.2779 17.6569 29.2485 17.6862ZM8.84607 16.7055C10.5128 17.6944 10.741 17.8505 10.6311 17.9265C10.4176 18.0739 7.18882 19.9809 7.01396 20.063C6.86787 20.1313 6.63526 20.0128 4.94483 19.0077C3.72648 18.2832 3.06456 17.8503 3.10761 17.806C3.20687 17.7039 6.85898 15.5367 6.9 15.5554C6.91925 15.5643 7.79495 16.0818 8.84607 16.7055ZM24.75 17.8581C24.75 18.9867 24.737 19.91 24.7212 19.91C24.6246 19.91 21.3153 17.8971 21.3302 17.8473C21.3485 17.7857 24.5994 15.8198 24.6975 15.8109C24.7264 15.8083 24.75 16.7295 24.75 17.8581ZM22.4842 19.388C23.5368 20.0118 24.3974 20.5382 24.3968 20.558C24.3961 20.5778 23.5307 21.1048 22.4737 21.7291L20.5517 22.8642L18.6286 21.7291C17.5709 21.1048 16.7047 20.5778 16.7038 20.558C16.7023 20.525 20.4795 18.2598 20.5427 18.2558C20.5579 18.2549 21.4316 18.7643 22.4842 19.388ZM4.65657 19.622L6.54769 20.738L6.54881 23.0682L6.55 25.3984L6.3925 25.2932C6.30584 25.2353 5.42391 24.7084 4.4325 24.1223L2.63 23.0567V20.7574C2.63 19.3077 2.65499 18.4669 2.69769 18.4821C2.73493 18.4953 3.61644 19.0083 4.65657 19.622ZM11.0835 20.7811L11.065 23.092L9.21 24.1985C8.18975 24.8071 7.33141 25.3061 7.3025 25.3074C7.27359 25.3088 7.25 24.2791 7.25 23.0194V20.729L9.1225 19.6068C10.1523 18.9895 11.0191 18.4813 11.0485 18.4773C11.0779 18.4733 11.0936 19.51 11.0835 20.7811ZM18.345 22.3416L20.165 23.4217L20.1835 25.7401C20.1936 27.0152 20.1764 28.0475 20.1452 28.0341C20.114 28.0207 19.2473 27.5111 18.2192 26.9015L16.35 25.7933V23.4919C16.35 21.68 16.3686 21.1981 16.4375 21.2261C16.4857 21.2456 17.344 21.7476 18.345 22.3416ZM24.75 23.4988V25.7917L22.8835 26.9007C21.8568 27.5107 20.9902 28.0207 20.9575 28.0341C20.9248 28.0475 20.9064 27.0163 20.9165 25.7425L20.935 23.4265L22.79 22.3193C23.8102 21.7103 24.6686 21.2107 24.6975 21.209C24.7264 21.2074 24.75 22.2378 24.75 23.4988Z" fill="black" />
</svg>
